<?xml version="1.0" encoding="utf-8" ?><svg xmlns="http://www.w3.org/2000/svg" xmlns:xlink="http://www.w3.org/1999/xlink" width="449" height="449" viewBox="0 0 449 449"><path fill="#FC7713" d="M206.796 0L242.209 0C243.67 0.781183 255.034 1.54872 258.086 2.00704C287.307 6.39578 314.457 16.1085 339.874 31.2982C383.167 56.8224 416.555 96.2382 434.612 143.139C442.29 162.67 447.027 185.079 448.427 205.994C448.469 206.621 448.679 207.27 449 207.805L449 241.433C447.892 243.819 448.047 249.735 447.676 252.617C446.041 265.329 443.654 277.651 439.958 289.956C420.991 352.731 375.513 404.069 315.484 430.467C299.95 437.37 283.644 442.383 266.915 445.398C262.331 446.207 257.706 446.872 253.124 447.641C250.343 448.108 244.369 447.733 242.184 449L207.062 449C205.882 448.389 203.951 448.205 202.606 448.145C194.581 447.787 185.144 446.189 177.256 444.494C160.627 441.029 144.453 435.657 129.054 428.486C71.1064 401.427 27.4434 350.946 9.0168 289.705C6.15662 280.315 3.94516 270.739 2.39805 261.046C1.93933 258.12 1.62552 255.171 1.23856 252.247C0.869665 249.459 1.04107 244.621 0 242.099L0 207.329C0.9207 205.012 0.97219 198.35 1.31946 195.597C1.7308 192.337 2.19681 189.134 2.72329 185.875C4.52073 175.161 7.16486 164.606 10.6308 154.31C32.9943 85.1613 87.6098 31.221 157.032 9.71924C168.149 6.27623 179.516 3.69965 191.031 2.01262C193.975 1.55966 205.463 0.806134 206.796 0Z"/><path d="M217.123 18.6448C329.28 13.8494 424.081 100.9 428.845 213.059C433.609 325.218 346.532 419.994 234.372 424.727C122.256 429.458 27.5249 342.423 22.7626 230.308C18.0003 118.194 105.01 23.4383 217.123 18.6448Z"/><path fill="#FC7713" d="M270.915 108.606C272.778 108.361 277.447 108.404 279.539 108.386C300.001 108.21 325.588 113.015 343.905 122.431C368.73 135.193 386.243 156.08 394.654 182.722C400.487 201.2 400.888 234.357 396.779 252.988C394.736 262.004 391.512 270.71 387.192 278.882C375.244 301.888 353.2 319.542 328.568 327.257C312.817 332.194 296.407 334.708 279.901 334.713C248.682 334.634 222.606 326.374 196.343 309.386C188.547 304.343 182.951 299.629 175.632 294.279C168.867 289.343 161.764 284.888 154.375 280.946C144.131 275.609 134.027 271.943 122.531 270.49C115.38 269.586 109.983 270.991 103.312 273.46C98.9922 275.059 95.0448 276.407 91.4265 279.416C81.4437 287.129 77.437 299.099 75.989 311.261C74.9596 308.6 72.3185 303.938 70.8944 301.163C67.9103 295.489 65.2993 289.626 63.0783 283.612C49.5382 246.198 48.2518 202.25 61.3681 164.549C63.7932 157.459 66.6689 150.531 69.9777 143.808C71.9261 139.845 74.1648 136.073 76.0392 132.075C76.692 142.856 81.5955 156.283 89.9503 163.281C95.5887 168.004 101.444 170.122 108.529 171.687C113.226 172.724 118.209 173.478 123.06 173.126C141.078 170.832 159.742 160.975 174.235 150.205C185.699 141.686 194.448 134.238 207.29 127.24C228.092 115.903 247.387 110.427 270.915 108.606Z"/><path d="M364.392 175.776C364.684 175.711 364.501 175.719 364.926 175.909C365.536 177.68 366.358 186.573 366.718 189.091C369.113 205.834 370.603 222.987 373.247 239.683C364.748 240.703 352.262 240.71 350.164 230.295C341.378 230.351 332.592 230.333 323.807 230.241C322.355 233.178 320.638 236.147 319.047 239.028L313.399 239.173C307.391 239.268 301.212 239.203 295.189 239.202C289.331 239.014 283.063 239.68 277.315 238.364C266.318 235.847 259.535 227.66 259.43 216.511C256.838 224.104 254.579 231.39 252.172 239.034C246.251 239.187 239.55 239.151 233.632 239.011C234.621 235.012 236.255 230.086 237.463 226.085L244.817 201.391C246.349 196.216 248.112 190.694 249.354 185.469C247.485 184.728 245.282 183.58 243.446 182.683C247.51 182.316 253.127 181.118 257.278 180.422C260.825 179.827 267.445 179.046 270.675 178.111C269.373 181.354 268.291 187.221 266.956 191.091C266.688 192.043 266.281 193.192 265.97 194.154C269.07 191.03 270.977 188.08 274.624 185.101C285.221 176.444 294.893 175.884 307.83 176.177C312.371 176.28 316.834 176.079 321.409 176.472C320.529 178.279 319.073 183.932 318.325 186.312C312.33 186.668 299.496 185.685 294.835 188.127C285.295 193.123 277.434 212.631 282.131 222.872C283.932 226.798 290.709 228.091 294.506 229.354C296.869 222.68 298.387 215.096 300.591 208.492C298.348 207.347 297.04 206.705 294.648 205.824C303.107 204.411 312.089 202.741 320.54 201.639C319.734 203.6 318.563 208.257 317.893 210.54C315.774 217.6 313.78 224.696 311.911 231.826C316.218 225.753 321.161 217.286 325.052 210.853L340.88 184.971C338.995 184.502 337.603 183.625 335.909 182.697C339.474 182.188 343.569 181.068 347.119 180.188C352.891 178.771 358.649 177.3 364.392 175.776Z"/><path fill="#FC7713" d="M346.118 191.145C346.346 191.351 346.564 191.677 346.604 191.994C347.751 201.079 347.643 210.761 349.084 219.774C343.412 219.645 337.447 219.716 331.752 219.697L328.584 219.778C329.504 218.463 330.463 216.928 331.274 215.535C335.994 207.433 341.75 199.395 346.118 191.145Z"/><path d="M224.348 160.614L224.681 160.667C225.062 161.779 222.268 169.358 221.777 170.997L211.108 206.234C209.418 211.772 207.537 217.216 205.981 222.796C215.504 222.512 226.417 222.761 236.016 222.812C234.606 228.285 232.811 233.519 231.558 239.059L204.125 239.06C196.147 239.088 179.571 240.187 181.056 227.537C181.807 221.141 184.255 214.394 186.066 208.181L197.337 170.497C194.628 169.164 192.301 167.276 189.293 165.981C193.29 164.856 201.193 163.87 205.404 163.322C211.734 162.532 218.05 161.629 224.348 160.614Z"/><path d="M133.904 185.87C134.185 185.783 134.244 185.839 134.575 185.879C134.757 186.534 132.47 192.914 132.123 194.026L125.543 215.558C124.421 219.314 123.162 224.201 121.817 227.788C126.713 227.756 135.525 227.479 140.102 227.946C145.564 219.583 150.773 210.147 156.326 201.491C155.485 201.187 153.956 200.788 153.591 200.056C153.742 199.892 153.892 199.729 154.042 199.566C158.81 198.326 166.305 197.539 170.946 196.648C172.127 208.237 174.012 219.944 175.21 231.457L176.059 238.81C169.895 238.844 163.16 240.143 161.371 232.589C157.815 232.897 148.006 232.819 144.347 232.634C143.486 234.753 141.787 237.184 140.505 239.137C134.622 238.94 111.585 239.827 107.539 237.102C106.141 236.16 104.518 234.625 104.232 232.904C103.658 229.452 107.478 219.679 108.607 216.03C109.513 213.108 115.618 192.909 115.129 191.502C114.738 190.378 112.727 189.432 111.768 188.836C118.887 188.123 126.928 186.279 133.904 185.87Z"/><path fill="#FC7713" d="M158.586 207.874C159.555 208.909 160.408 223.015 160.703 225.539L149.687 225.496C148.73 225.476 148.393 225.643 147.741 225.203C150.968 219.527 155.035 213.361 158.586 207.874Z"/><path d="M244.156 248.908C248.404 248.875 252.9 248.664 257.136 248.978C267.67 249.75 267.194 255.463 265.738 263.788C264.787 269.225 265.851 274.227 261.063 277.992C255.546 280.672 246.959 279.909 240.622 279.904C241.422 269.725 243.155 259.169 244.156 248.908Z"/><path fill="#FC7713" d="M250.873 255.093C260.694 254.647 258.915 256.395 258.11 264.787C257.841 267.59 257.557 270.902 255.866 273.174C254.298 273.801 250.565 273.665 248.738 273.671C248.979 272.712 249.087 271.646 249.196 270.657C249.767 265.483 250.529 260.285 250.873 255.093Z"/><path d="M297.171 248.869C304.376 248.728 312.798 247.38 317.197 254.187C317.433 257.376 317.281 261.448 315.515 264.204C314.273 266.143 313.123 266.44 311.294 267.6C312.401 271.536 313.73 275.819 314.475 279.802C311.719 279.975 309.864 279.937 307.159 279.78L306.244 276.561C305.864 274.508 304.719 270.692 304.135 268.568C303.035 268.493 301.813 268.495 300.7 268.472C300.217 272.267 299.791 276.069 299.421 279.877C296.562 279.996 294.565 279.902 291.707 279.739C292.533 273.401 293.306 267.057 294.027 260.707C294.413 257.43 294.881 252.359 295.59 249.292C296.054 248.817 296.309 248.96 297.171 248.869Z"/><path fill="#FC7713" d="M302.422 255.01C307.69 254.929 312.035 255.303 308.389 261.862C306.393 262.427 303.653 262.28 301.526 262.273C301.866 259.7 301.856 257.597 302.422 255.01Z"/><path d="M329.393 248.946C332.126 248.885 334.226 248.923 336.957 249.07C338.596 259.287 340.293 269.495 342.048 279.694C339.263 279.868 337.181 279.939 334.394 279.889C334.137 277.963 333.994 276.326 333.862 274.385L329.09 274.266L326.103 274.26C325.414 276.071 324.699 277.872 323.959 279.663C321.539 279.98 318.995 279.9 316.56 279.805C320.769 269.646 324.96 258.954 329.393 248.946Z"/><path fill="#D07539" d="M331.924 257.954L332.189 258.362C332.13 261.454 332.511 265.118 332.772 268.234L329.498 268.192L329.031 268.028C328.709 266.892 331.371 259.615 331.924 257.954Z"/><path d="M222.841 248.872C228.403 248.765 233.966 248.789 239.527 248.945C239.287 251.064 239.076 252.897 238.683 255.004L228.088 254.997C227.709 257.208 227.56 258.561 227.429 260.801C230.372 261.023 234.216 260.991 237.241 261.066C236.999 262.889 236.837 264.894 236.65 266.737C233.218 266.869 229.782 266.899 226.348 266.829C226.265 268.835 226.076 270.931 225.925 272.94L225.826 273.242C226.781 273.828 235.044 273.693 236.785 273.707C236.71 275.715 236.506 277.756 236.333 279.761C231.517 280.073 222.536 280.037 217.677 279.74C217.783 274.877 218.937 267.726 219.546 262.795C220.043 258.77 220.51 253.056 221.23 249.204C221.856 248.797 221.972 248.93 222.841 248.872Z"/><path d="M279.392 248.866C282.919 248.776 287.137 248.774 290.626 249.053C290.531 251.228 290.347 252.673 290.032 254.827C286.759 255.175 282.703 254.927 279.02 255.275L278.732 260.951C281.958 260.972 285.185 260.956 288.412 260.903L287.943 266.701C284.563 266.881 281.177 266.931 277.794 266.851C277.724 268.84 277.366 271.548 277.158 273.578L281.296 273.668C283.554 273.67 285.813 273.686 288.071 273.715C287.902 275.848 287.683 277.718 287.405 279.827C282.405 279.97 273.601 280.226 268.905 279.757C269.02 275.909 269.947 270.408 270.401 266.487C271.069 260.71 271.688 254.794 272.541 249.055L279.392 248.866Z"/><path d="M204.226 248.864C208.441 248.778 212.658 248.822 216.87 248.996C216.824 250.926 216.716 252.854 216.545 254.777C212.455 254.973 208.896 254.981 204.786 254.943L203.814 261.001C207.44 260.957 211.162 261.003 214.797 261.005C214.565 262.91 214.425 265.083 214.24 267.022L205.344 267.116L202.832 267.241C202.631 271.422 202.22 275.59 201.601 279.73C198.984 279.872 197.057 279.916 194.438 279.844C194.391 275.594 195.123 271.022 195.621 266.779C196.292 260.859 197.017 254.946 197.794 249.039L204.226 248.864Z"/><path d="M348.711 248.896C351.434 248.785 353.331 248.789 356.038 249.069C355.938 252.267 355.344 256.245 354.949 259.458C354.359 264.14 353.846 268.832 353.408 273.53C356.596 273.499 360.21 273.669 363.427 273.749C363.199 276.041 363.168 277.608 362.664 279.884C356.892 279.688 351.335 280.088 345.233 279.751C345.614 271.241 347.213 262.702 348.001 254.213C348.153 252.568 348.358 250.493 348.711 248.896Z"/><path fill="#FC7713" d="M123.708 286.05C135.093 285.746 157.824 299.533 166.791 306.149C177.218 313.843 186.041 320.929 197.412 327.627C235.778 350.392 281.705 356.718 324.797 345.172C332.992 343.045 340.635 340.313 348.461 337.11C351.771 335.755 355.113 334.324 358.58 333.43C355.267 339.418 342.135 351.23 336.836 355.741C318.64 370.818 296.2 382.362 273.539 389.293C264.264 392.13 247.058 392.624 237.346 391.717C234.423 391.444 227.969 389.82 224.875 389.041C212.455 385.86 199.981 382.068 188.753 375.692C157.338 357.854 132.348 329.157 122.001 294.257C121.22 291.62 120.201 287.013 123.708 286.05Z"/><path fill="#FC7713" d="M241.242 51.1063C249.859 50.2812 266.539 52.2715 274.827 54.6454C306.775 63.7958 337.608 84.5242 358.784 110.079C354.498 109.205 349.294 106.826 345.103 105.171C340.507 103.353 335.854 101.685 331.15 100.167C290.483 87.1205 246.319 90.5603 208.162 109.746C194.666 116.433 183.89 124.07 172.133 133.302C161.775 141.435 149.921 148.988 137.837 154.222C134.219 155.79 129.985 157.281 126.064 157.745C117.853 158.37 122.506 147.791 123.815 144.05C129.327 127.842 137.942 112.863 149.179 99.948C168.294 78.0885 193.512 62.4478 221.589 55.0376C228.781 53.0697 233.856 51.6251 241.242 51.1063Z"/><path fill="#FC7713" d="M177.003 54.5755C179.837 53.5562 182.739 52.7351 185.686 52.1181C183.486 53.4812 180.427 55.4433 178.173 56.6009C173.479 59.6538 168.544 62.8161 163.993 66.1729C137.967 85.3716 117.578 112.193 108.253 143.335C107.453 145.505 106.323 151.893 103.572 152.412C98.4692 153.375 93.6771 145.358 93.0435 141.221C86.6482 99.4557 130.332 69.7276 164.792 58.3202C168.808 56.9907 172.88 55.5216 177.003 54.5755Z"/><path fill="#D07539" d="M177.003 54.5755C179.837 53.5562 182.739 52.7351 185.686 52.1181C183.486 53.4812 180.427 55.4433 178.173 56.6009C178.841 55.0895 179.369 55.7818 180.619 54.1336L180.242 54.0609C179.464 54.5362 177.902 54.7788 177.003 54.5755Z"/><path fill="#FC7713" d="M102.408 290.494C105.358 290.689 106.106 292.815 106.919 295.32C108.128 299.043 109.096 302.859 110.427 306.544C113.363 314.539 116.959 322.277 121.179 329.676C132.835 349.863 148.908 367.149 168.195 380.24C173.651 383.976 179.82 387.494 185.56 390.75C182.455 390.344 179.711 389.588 176.693 388.807C146.228 380.596 107.597 359.379 95.5636 328.295C91.532 317.881 88.7805 295.401 102.408 290.494Z"/></svg>