<?xml version="1.0" encoding="utf-8" ?><svg xmlns="http://www.w3.org/2000/svg" xmlns:xlink="http://www.w3.org/1999/xlink" width="512" height="512" viewBox="0 0 512 512"><path fill="#DC332D" d="M244.095 69.4732C347.134 62.7022 436.169 140.708 443.004 243.742C449.84 346.777 371.89 435.861 268.86 442.761C165.738 449.667 76.558 371.633 69.7164 268.507C62.8747 165.381 140.964 76.2501 244.095 69.4732Z"/><path d="M253.611 83.8251C348.841 82.377 427.235 158.363 428.757 253.592C430.279 348.822 354.354 427.274 259.126 428.87C163.793 430.468 85.2356 354.441 83.7118 259.107C82.188 163.773 158.276 85.2748 253.611 83.8251Z"/><path fill="#DC332D" d="M297.431 160.112C315.763 159.052 340.095 163.741 356.249 171.812C378.054 182.705 393.151 201.198 399.992 224.556C405.026 241.746 404.829 267.508 400.778 285.023C399.71 289.643 395.766 299.289 393.569 303.632C383.346 323.507 365.695 338.546 344.448 345.482C306.619 357.835 266.161 353.629 232.832 331.708C226.437 327.502 221.347 323.383 215.256 318.925C208.558 313.969 201.466 309.57 194.05 305.773C187.213 302.146 179.866 299.574 172.26 298.145C160.637 296.06 145.751 299.798 137.771 308.828C131.916 315.452 130.373 323.562 128.874 331.943C124.108 322.521 120.904 317.16 117.196 306.913C105.018 273.149 105.393 236.131 118.253 202.621C120.08 197.91 122.144 193.294 124.437 188.791C125.89 185.947 127.523 183.2 128.875 180.314C131.697 197.758 137.184 209.148 155.737 213.554C180.074 219.334 204.853 201.416 223.052 187.518C245.529 170.353 269.257 161.32 297.431 160.112Z"/><path d="M345.366 241.245C348.641 240.923 350.46 240.115 353.487 239.451C359.103 238.219 365.105 236.426 370.695 235.425C370.954 241.34 372.171 247.669 372.88 253.578C373.733 260.693 374.339 268.233 375.523 275.306C376.283 279.852 376.426 286.831 377.245 290.993C372.673 291.508 363.72 291.387 360.138 288.375C357.86 286.46 357.333 285.297 356.733 282.54C349.013 282.537 341.016 282.684 333.329 282.507C332.191 285.235 330.604 287.928 329.115 290.491L310.912 290.531C301.172 290.544 290.816 291.803 283.092 284.417C280.181 281.633 277.978 276.438 277.659 272.498C277.36 272.57 277.001 272.553 276.678 272.562C275.496 276.108 271.884 287.073 271.275 290.468C265.921 290.548 260.567 290.554 255.214 290.486C259.405 274.99 264.487 259.077 268.932 243.598C267.402 242.807 265.896 241.969 264.417 241.088C268.835 240.712 273.989 239.6 278.437 238.926C280.88 238.555 285.218 238.034 287.454 237.425C285.664 242.006 284.11 248.288 282.463 253.198C298.553 231.966 308.267 236.051 331.943 235.749C330.998 238.426 329.714 241.77 329.204 244.501C325.991 244.531 322.777 244.534 319.564 244.509C313.49 244.474 309.076 244.303 304.57 249.134C299.26 254.827 296.229 263.302 296.34 271.047C296.469 279.971 301.95 280.728 308.998 282.087C310.608 275.961 312.643 269.846 314.033 263.762C312.422 263.124 310.906 262.22 309.501 261.205C317.414 260.339 323.628 259.343 331.46 257.853C329.19 264.623 327.508 271.74 325.338 278.562C324.617 280.829 323.804 283.467 323.346 285.785C325.365 283.366 329.946 275.31 331.903 272.086C337.664 262.595 343.885 252.944 349.488 243.396C348.138 242.694 346.691 241.973 345.366 241.245Z"/><path fill="#BF412A" d="M277.368 269.017C277.482 270.06 277.684 271.484 277.659 272.498C277.36 272.57 277.001 272.553 276.678 272.562C276.895 271.378 277.125 270.196 277.368 269.017Z"/><path fill="#DC332D" d="M353.46 248.175C353.721 248.428 353.877 248.732 353.899 249.108C354.387 257.377 355.167 265.561 355.967 273.801C350.978 273.708 345.823 273.777 340.822 273.781L337.639 273.758C342.735 266.552 348.469 255.973 353.46 248.175Z"/><path d="M246.062 222.139L246.462 222.122C246.856 222.867 243.569 232.653 243.031 234.471L234.099 264.058C232.849 268.19 231.295 272.694 230.226 276.809C238.466 276.865 248.1 277.05 256.253 276.77C255.186 280.996 253.116 287.143 252.382 290.778C244.989 290.906 237.12 290.709 229.688 290.639C222.556 290.235 206.344 291.899 208.642 279.112C209.529 274.176 211.676 268.31 213.116 263.341C216.251 252.264 219.451 241.206 222.717 230.167C220.369 228.97 218.139 227.636 215.694 226.406C218.099 226.175 220.554 225.595 222.937 225.391C230.568 224.736 238.49 222.598 246.062 222.139Z"/><path d="M162.671 232.597L163.413 232.456L163.601 232.721C161.982 237.193 160.427 242.957 159.03 247.588C156.655 255.255 154.363 262.946 152.153 270.661L169.118 270.711C169.977 269.028 171.095 267.257 172.094 265.637C175.955 259.375 179.626 252.934 183.634 246.769C182.536 246.238 181.473 245.627 180.407 245.035C182.822 244.374 194.031 243.029 196.683 242.901C197.308 246.027 197.461 250.645 197.931 253.92C198.844 260.298 199.697 266.645 200.312 273.059L201.078 280.348C195.709 280.328 189.338 280.961 188.098 274.284C183.543 274.382 177.357 274.513 172.851 274.268C171.824 276.182 170.538 278.293 169.448 280.212C163.197 280.227 146.299 281.019 141.324 279.276C139.714 278.712 138.067 277.664 137.34 276.06C136.777 274.821 136.888 273.371 137.125 272.067C137.84 268.135 139.647 263.574 140.767 259.664C142.873 252.317 144.562 244.547 147.299 237.426C146.043 236.773 144.776 236.073 143.527 235.399C147.588 235.347 157.688 233.239 162.671 232.597Z"/><path fill="#DC332D" d="M185.674 251.438C186.308 252.324 186.932 265.938 187.38 268.612C183.972 268.552 180.408 268.603 176.987 268.599C176.43 268.586 176.057 268.523 175.507 268.447L175.4 268.161C178.629 262.705 182.232 256.748 185.674 251.438Z"/><path fill="#DC332D" d="M169.454 310.802C171.521 310.621 172.04 310.746 173.962 311.31C186.58 315.011 197.791 322.023 208.277 329.812C212.918 333.26 217.474 337.021 222.344 340.357C228.709 344.75 235.41 348.634 242.385 351.973C267.03 363.796 294.575 368.216 321.681 364.695C334.21 362.998 346.831 359.433 358.592 354.89C360.245 354.252 367.268 350.957 368.439 351.531C368.894 354.382 352.556 368.602 349.978 370.819C348.236 372.211 346.478 373.582 344.705 374.934C322.39 391.699 292.513 404.696 263.994 400.676C261.197 400.282 257.724 399.335 254.927 398.671C226.995 392.07 202.293 375.816 185.177 352.777C178.455 343.608 173.131 333.492 169.377 322.76C168.043 318.99 165.567 313.679 169.454 310.802Z"/><path fill="#DC332D" d="M268.785 111.602C271.686 111.197 276.627 111.464 279.682 111.585C298.463 112.329 319.327 121.318 335.102 131.293C345.711 138.061 355.448 146.108 364.094 155.253C365.224 156.45 368.073 159.396 368.42 160.931L368.137 161.339C366.394 161.463 358.425 157.657 355.954 156.755C316.254 142.255 279.005 143.522 240.844 161.452C233.544 165.094 226.543 169.307 219.908 174.053C215.341 177.297 211.048 180.935 206.368 184.32C196.005 191.817 184.614 198.895 172.021 201.876C171.044 202.118 169.509 202.123 168.682 201.432C165.612 198.871 168.48 192.529 169.525 189.564C173.781 177.497 180.074 166.067 188.123 156.124C205.11 135.206 228.539 120.495 254.759 114.281C260.079 112.988 263.287 112.184 268.785 111.602Z"/><path fill="#DC332D" d="M221.219 112.317L221.419 112.566C220.084 113.724 217.8 114.934 216.219 115.88C194.971 128.597 176.796 146.64 165.065 168.463C162.162 173.933 159.657 179.605 157.57 185.435C156.319 188.866 155.064 194.356 153.266 197.165C150.346 199.146 147.949 196.363 146.175 194.287C144.098 191.698 142.634 187.331 142.514 184.026C141.338 151.575 173.052 128.641 200.515 118.62C207.366 116.121 214.224 114.296 221.219 112.317Z"/><path fill="#DC332D" d="M150.891 315.043C151.922 315.114 153.165 315.199 153.698 316.171C155.501 319.463 156.092 323.31 157.434 326.892C160.128 334.297 163.469 341.45 167.418 348.269C177.348 365.039 190.787 379.463 206.814 390.554C211.944 394.161 217.258 397.324 222.612 400.58C220.075 399.909 217.958 399.175 215.295 398.56C202.674 395.252 187.977 388.752 177.053 381.838C161.209 371.811 147.238 358.574 143.342 339.476C141.961 332.709 141.717 324.945 145.733 318.986C147.175 316.846 148.403 315.561 150.891 315.043Z"/></svg>