<?xml version="1.0" encoding="utf-8" ?><svg xmlns="http://www.w3.org/2000/svg" xmlns:xlink="http://www.w3.org/1999/xlink" width="512" height="512" viewBox="0 0 512 512"><path fill="#00DC00" d="M240.504 435C144.306 426.681 71.7078 344.103 75.7803 247.632C79.8527 151.161 159.152 74.9948 255.709 74.8128C352.265 74.6308 431.852 150.497 436.288 246.952C440.724 343.407 368.437 426.259 272.272 434.94C261.705 435.894 251.074 435.914 240.504 435ZM265.384 421.683C357.194 416.636 427.529 338.118 422.48 246.308C417.432 154.498 338.911 84.1642 247.101 89.2145C155.294 94.2648 84.9631 172.782 90.0115 264.59C95.0599 356.397 173.576 426.73 265.384 421.683Z"/><path d="M247.101 89.2145C338.911 84.1642 417.432 154.498 422.48 246.308C427.529 338.118 357.194 416.636 265.384 421.683C173.576 426.73 95.0599 356.397 90.0115 264.59C84.9631 172.782 155.294 94.2648 247.101 89.2145ZM133.957 182.288C124.838 198.207 119.271 212.919 116.131 231.064C112.343 252.961 114.243 271.523 120.052 292.836C123.96 307.407 129.256 321.57 135.866 335.131C136.984 337.373 138.819 341.204 140.167 343.207L140.426 343.335C140.678 342.497 139.871 339.084 139.734 337.896C136.73 311.952 162.425 306.686 182.662 312.867C189.276 314.956 195.628 317.798 201.594 321.337C206.539 324.191 211.315 327.329 215.896 330.737C221.888 335.178 227.351 339.645 233.557 343.748C258.753 360.401 289.209 367.103 319.055 362.376C326.567 361.186 341.579 357.979 348.196 354.526C361.624 347.52 372.927 332.761 380.55 319.929C392.812 298.558 398.845 278.932 398.787 254.43C398.833 245.067 397.694 235.737 395.397 226.66C389.082 202.688 373.765 178.326 351.999 165.544C338.452 157.589 311.594 153.522 295.908 154.361C277.416 155.067 259.332 160.01 243.052 168.81C232.582 174.421 224.194 181.024 214.685 188.299C205.911 195.012 196.524 199.902 186.174 204.107C170.927 210.302 153.09 207.229 140.222 197.099C136.036 193.804 134.323 187.526 133.957 182.288Z"/><path fill="#00DC00" d="M295.908 154.361C311.594 153.522 338.452 157.589 351.999 165.544C373.765 178.326 389.082 202.688 395.397 226.66C397.694 235.737 398.833 245.067 398.787 254.43C398.845 278.932 392.812 298.558 380.55 319.929C372.927 332.761 361.624 347.52 348.196 354.526C341.579 357.979 326.567 361.186 319.055 362.376C289.209 367.103 258.753 360.401 233.557 343.748C227.351 339.645 221.888 335.178 215.896 330.737C211.315 327.329 206.539 324.191 201.594 321.337C195.628 317.798 189.276 314.956 182.662 312.867C162.425 306.686 136.73 311.952 139.734 337.896C139.871 339.084 140.678 342.497 140.426 343.335L140.167 343.207C138.819 341.204 136.984 337.373 135.866 335.131C129.256 321.57 123.96 307.407 120.052 292.836C114.243 271.523 112.343 252.961 116.131 231.064C119.271 212.919 124.838 198.207 133.957 182.288C134.323 187.526 136.036 193.804 140.222 197.099C153.09 207.229 170.927 210.302 186.174 204.107C196.524 199.902 205.911 195.012 214.685 188.299C224.194 181.024 232.582 174.421 243.052 168.81C259.332 160.01 277.416 155.067 295.908 154.361ZM256.196 260.27C255.684 262.066 255.283 263.508 254.596 265.239C255.425 265.438 255.404 265.505 256.192 265.236C256.711 264.025 257.09 262.683 257.486 261.419C258.469 258.039 259.454 254.444 260.596 251.135C259.713 251.129 259.618 251.034 258.824 251.341C257.752 254.51 257.11 257.109 256.196 260.27ZM329.094 294.977C329.904 294.795 330.545 295.076 331.146 294.636C331.289 293.75 331.274 293.138 331.284 292.237C331.257 289.402 331.282 286.416 331.075 283.6C330.239 287.311 329.685 291.209 329.094 294.977Z"/><path d="M287.501 223.068C302.752 207.471 312.777 211.553 332.489 211.038C331.41 213.967 330.241 217.347 329.046 220.188C324.104 220.156 314.74 219.593 310.458 221.031C302.296 223.772 297.104 236.999 297.178 244.938C297.208 248.111 298.047 251.388 300.389 253.58C302.821 255.914 306.011 255.714 309.036 256.551C310.051 252.72 312.953 242.362 314.462 238.876C312.424 237.95 311.209 237.232 309.372 235.913C312.898 235.796 317.844 234.982 321.485 234.454C324.539 234.012 328.895 233.573 331.783 233.009C328.84 241.197 326.555 250.822 323.712 259.388C326.041 256.127 327.787 252.721 329.931 249.412C336.353 239.499 342.32 228.725 348.85 218.952C347.289 218.18 345.858 217.478 344.258 216.793C352.771 214.966 361.231 212.631 369.787 211.08C372.173 229.357 374.408 247.653 376.493 265.966C370.821 266.074 360.915 266.809 357.705 260.684C357.268 259.85 357.066 258.454 356.904 257.497C349.401 257.506 341.803 257.573 334.308 257.481C332.885 260.178 331.508 262.897 329.704 265.365L310.082 265.361C300.901 265.354 291.374 266.583 284.252 259.35C279.994 255.026 279.216 251.113 278.787 245.292C277.411 249.713 276.067 254.144 274.757 258.584C274.168 260.577 273.479 263.395 272.721 265.25C270.743 265.391 257.426 265.63 256.192 265.236C256.711 264.025 257.09 262.683 257.486 261.419C258.469 258.039 259.454 254.444 260.596 251.135C263.117 241.397 266.947 229.222 270.01 219.543C269.071 218.903 266.549 217.363 266.031 216.631C266.146 216.509 266.26 216.388 266.375 216.266C272.878 215.205 282.434 214.028 288.507 212.598L286.044 221.3C285.33 223.299 284.532 225.371 283.85 227.362C285.419 225.896 286.196 224.795 287.501 223.068Z"/><path fill="#00DC00" d="M353.612 224.183C353.716 224.33 353.821 224.477 353.926 224.623C354.468 231.891 355.149 241.561 356.003 248.615C351.255 248.422 345.742 248.554 340.937 248.555C340.302 248.523 338.97 248.617 338.281 248.643C343.681 240.977 348.364 231.902 353.612 224.183Z"/><path d="M218.04 201.945C220.54 201.853 224.812 201.091 227.444 200.729C234.766 199.754 242.067 198.63 249.343 197.359L232.896 251.254L258.824 251.341C257.752 254.51 257.11 257.109 256.196 260.27C255.684 262.066 255.283 263.508 254.596 265.239C253.507 265.465 245.339 265.436 243.668 265.382C236.996 265.17 228.885 265.722 222.374 265.253C220.592 265.138 218.833 264.793 217.141 264.225C213.244 262.91 210.519 260.043 211.146 255.7C212.079 249.246 214.382 243.152 216.135 236.911C219.031 226.6 221.759 216.127 225.169 205.973C222.524 204.65 220.535 203.476 218.04 201.945Z"/><path d="M170.117 216.59C170.757 216.436 170.711 216.428 171.352 216.566C171.464 218.72 161.417 249.764 160.069 253.757C165.274 253.749 171.12 253.616 176.272 253.876C181.347 246.304 185.801 238.698 190.394 230.835C189.224 230.14 188.174 229.398 187.057 228.626C191.606 228.636 199.17 227.302 203.966 226.647C204.639 235.721 206.511 248.71 207.826 257.871L208.543 263.874C202.435 264.151 197.509 264.489 194.732 258.113C190.452 258.2 184.391 258.297 180.206 258.04C179.181 260.206 178.358 261.857 176.825 263.708C172.011 264.136 153.699 264.316 149.788 263.169C147.999 262.644 146.044 261.606 145.184 259.861C144.581 258.637 144.68 257.181 144.912 255.877C145.361 253.349 146.336 250.868 147.037 248.398C148.46 243.379 149.884 238.374 151.388 233.378C152.569 229.456 153.342 225.369 154.753 221.529C153.344 221.018 152.102 220.488 150.728 219.897C157.238 218.856 163.452 217.329 170.117 216.59Z"/><path fill="#00DC00" d="M192.687 236.199C193.149 236.786 194.169 250.186 194.364 252.3C191.139 252.327 187.913 252.314 184.688 252.259C183.979 252.319 183.958 252.383 183.322 252.109C183.384 251.135 191.522 238.126 192.687 236.199Z"/><path d="M362.157 279.074C374.248 278.206 376.536 287.632 371.191 296.808C369.519 299.678 365.916 301.202 362.697 301.729C350.36 302.444 347.835 293.436 353.53 283.888C355.279 280.957 358.847 279.551 362.157 279.074Z"/><path fill="#00DC00" d="M362.675 283.063C364.026 282.992 364.966 283.153 366.291 283.327C371.498 287.037 368.629 296.488 362.053 297.789C354.381 297.918 354.4 291.752 357.558 286.138C358.612 284.264 360.597 283.379 362.675 283.063Z"/><path d="M279.644 279.108C282.779 279.106 285.831 278.944 288.556 280.803C290.192 281.911 291.315 283.63 291.67 285.574C293.093 293.094 288.689 300.419 280.812 301.71C268.338 302.522 265.91 293.399 271.595 283.822C273.148 281.207 276.644 279.58 279.644 279.108Z"/><path fill="#00DC00" d="M280.719 283.061C282.127 282.997 282.922 283.143 284.305 283.326C289.531 287.006 286.643 296.209 280.342 297.769C279.068 297.813 277.692 297.925 276.498 297.371C272.263 295.407 273.419 289.364 275.513 286.241C276.896 284.177 278.305 283.434 280.719 283.061Z"/><path d="M342.396 279.407L349.845 279.497C348.454 285.381 347.689 291.564 346.531 297.511C346.278 298.808 346.057 300.162 345.927 301.475L341.059 301.479C341.314 299.926 341.598 298.35 341.775 296.789L341.488 296.754C341.058 295.895 341.731 295.618 341.503 294.419C340.924 294.092 341.228 294.119 340.588 294.247C340.186 295.07 339.816 295.768 339.367 296.566L339.083 296.282C338.454 297.298 337.277 300.241 336.748 301.483L332.023 301.455C331.808 298.414 331.631 295.257 331.284 292.237C331.257 289.402 331.282 286.416 331.075 283.6C330.239 287.311 329.685 291.209 329.094 294.977C328.715 297.137 328.309 299.326 327.96 301.488L323.315 301.47C324.492 294.405 326.2 286.46 327.092 279.471C329.491 279.425 331.89 279.416 334.289 279.444C334.503 284.537 334.907 291.19 335.291 296.33C337.624 290.403 339.824 285.241 342.396 279.407Z"/><path fill="#16F600" d="M344.458 284.117C343.767 286.802 343.164 289.509 342.65 292.233C342.466 293.176 342 296.057 341.775 296.789L341.488 296.754C341.058 295.895 341.731 295.618 341.503 294.419C340.924 294.092 341.228 294.119 340.588 294.247C340.186 295.07 339.816 295.768 339.367 296.566L339.083 296.282C340.342 293.181 342.801 286.664 344.458 284.117Z"/><path d="M248.701 279.399C250.701 279.418 253.518 279.463 255.565 279.37C261.717 279.09 268.795 279.976 266.482 288.168C265.844 290.429 263.763 291.605 261.744 292.63C262.736 295.426 263.969 298.649 264.737 301.478C263.298 301.454 261.286 301.803 260.008 301.284C259.545 301.096 259.592 300.835 259.319 300.212C258.636 297.926 257.873 295.534 257.347 293.217L251.122 293.261C250.536 295.46 250.137 298.983 249.612 301.462L244.806 301.497C245.295 299.758 245.609 297.764 245.899 295.962C246.784 290.46 247.963 284.916 248.701 279.399Z"/><path fill="#00DC00" d="M253.038 283.344C255.55 283.385 259.297 282.901 261.409 284.379C263.076 285.546 261.527 287.837 260.444 288.892C258.512 289.52 254.003 289.33 251.798 289.308C252.01 287.918 252.428 284.455 253.038 283.344Z"/><path d="M227.335 279.475C232.721 279.357 244.374 277.675 244.462 285.533C244.476 287.69 243.623 289.762 242.096 291.284C239.489 293.854 236.269 293.921 232.89 293.945L229.637 293.863C229.128 296.357 228.677 298.991 228.212 301.502L223.419 301.483C224.885 295.366 226.23 285.867 227.335 279.475Z"/><path fill="#00DC00" d="M231.528 283.284L234.128 283.323C238.575 283.365 241.76 285.124 237.799 289.291C235.686 289.987 232.624 289.784 230.326 289.775C230.57 287.752 231.069 285.273 231.528 283.284Z"/><path d="M314.606 279.402C314.915 279.346 314.74 279.333 315.103 279.576C314.933 280.208 307.222 288.902 306.17 290.119C308.286 293.458 310.324 297.917 312.514 301.541L306.954 301.463C305.638 298.91 304.247 296.317 303.102 293.689C301.134 295.788 299.515 298.425 297.41 300.424C296.301 301.477 296.075 301.522 294.563 301.48C293.306 301.436 291.843 301.51 290.57 301.544C294.098 297.858 297.321 293.565 300.915 289.784C298.994 286.63 297.086 282.692 295.181 279.355C296.882 279.464 298.997 279.436 300.733 279.457C301.88 281.726 302.977 283.9 304.03 286.219C305.931 283.849 307.641 281.734 309.679 279.476L314.606 279.402Z"/><path d="M318.099 279.469C319.738 279.435 321.511 279.488 323.161 279.508C322.515 281.697 321.961 285.415 321.545 287.773L319.128 301.489L314.263 301.506C315.554 295.803 317.449 285.121 318.099 279.469Z"/><path fill="#16F600" fill-opacity="0.98823529" d="M258.824 251.341C259.618 251.034 259.713 251.129 260.596 251.135C259.454 254.444 258.469 258.039 257.486 261.419C257.09 262.683 256.711 264.025 256.192 265.236C255.404 265.505 255.425 265.438 254.596 265.239C255.283 263.508 255.684 262.066 256.196 260.27C257.11 257.109 257.752 254.51 258.824 251.341Z"/><path d="M283.475 273.547L288.206 273.468C286.77 274.848 285.243 276.217 283.773 277.568C282.355 277.793 281.308 277.837 279.89 277.905C281.066 276.252 282.114 275.035 283.475 273.547Z"/><path fill="#16F600" fill-opacity="0.98823529" d="M331.075 283.6C331.282 286.416 331.257 289.402 331.284 292.237C331.274 293.138 331.289 293.75 331.146 294.636C330.545 295.076 329.904 294.795 329.094 294.977C329.685 291.209 330.239 287.311 331.075 283.6Z"/><path fill="#008A1A" d="M268.313 110.607C297.824 110.684 326.75 126.661 347.969 146.27C351.724 149.74 357.37 155.257 359.967 159.571C353.031 156.953 347.639 154.417 340.354 151.987C304.307 139.962 266.963 143.242 233.133 160.504C211.397 171.578 194.996 191.606 170.774 197.748C162.445 199.861 166.21 190.52 167.567 186.591C172.411 172.702 180.004 159.931 189.893 149.041C209.795 127.133 238.534 112.01 268.313 110.607Z"/><path fill="#008A1A" d="M176.526 324.253C182.72 324.066 193.704 330.202 199.218 333.472C208.819 339.165 217.167 346.758 226.544 352.849C233.85 357.587 241.598 361.603 249.681 364.841C275.589 375.151 304.183 376.581 330.991 368.908C339.616 366.488 346.37 363.729 354.562 360.213C350.981 365.602 343.192 373.005 338.324 377.193C318.739 393.439 296.128 404.093 270.408 404.234C260.441 404.288 244.582 400.724 235.324 397.034C222.974 392.112 209.18 382.45 199.85 372.98C189.637 362.502 181.781 349.964 176.807 336.204C175.257 332.034 172.801 327.666 176.526 324.253Z"/><path fill="#008A1A" d="M220.512 110.518C220.756 110.648 220.626 110.543 220.796 110.932C220.154 111.583 216.053 113.814 215.025 114.418C212.729 115.776 210.477 117.206 208.271 118.706C194.795 127.828 183.085 139.322 173.713 152.626C170.3 157.547 165.886 165.036 163.411 170.525C162.066 173.566 160.813 176.647 159.652 179.763C158.524 182.864 156.572 190.348 154.733 192.453C152.005 193.669 150.644 192.024 148.798 190.158C141.177 180.132 145.779 164.535 151.372 154.625C161.61 136.483 181.311 123.813 200.441 116.666C207.044 114.199 213.773 112.535 220.512 110.518Z"/><path fill="#008A1A" d="M156.073 326.955C157.546 327.023 158.445 327.101 159.06 328.606C160.51 332.157 161.545 335.859 162.916 339.447C165.079 345.148 167.739 350.648 170.864 355.884C180.442 371.879 194.074 384.905 209.7 394.978C211.387 396.065 213.647 396.963 215.147 398.225L214.959 398.429C213.412 398.397 212.276 397.893 210.806 397.391C207.052 396.02 203.346 395.143 199.424 393.573C183.638 387.18 166.599 377.896 156.967 363.399C150.74 354.028 144.188 334.707 156.073 326.955Z"/><path fill="#00DC00" fill-opacity="0.96470588" d="M240.504 435C251.074 435.914 261.705 435.894 272.272 434.94C270.179 435.461 243.156 435.418 240.504 435Z"/></svg>